<?xml version="1.0" standalone="no"?>
<!DOCTYPE svg PUBLIC "-//W3C//DTD SVG 20010904//EN"
 "http://www.w3.org/TR/2001/REC-SVG-20010904/DTD/svg10.dtd">
<svg version="1.0" xmlns="http://www.w3.org/2000/svg"
 width="850.000000pt" height="843.000000pt" viewBox="0 0 850.000000 843.000000"
 preserveAspectRatio="xMidYMid meet">

<g transform="translate(0.000000,843.000000) scale(0.100000,-0.100000)"
fill="#000000" stroke="none">
<path d="M4383 7384 c-8 -22 44 -605 56 -617 5 -5 17 -7 26 -3 13 5 15 15 11
48 -3 24 -15 156 -26 293 -12 138 -25 260 -30 273 -11 26 -28 29 -37 6z"/>
<path d="M5588 7143 c-47 -54 -339 -507 -334 -519 3 -8 12 -14 20 -14 18 0
358 506 354 528 -4 23 -22 25 -40 5z"/>
<path d="M3070 6932 c0 -23 241 -336 262 -340 42 -8 22 34 -79 165 -123 160
-152 193 -170 193 -7 0 -13 -8 -13 -18z"/>
<path d="M6518 6603 c-146 -128 -498 -467 -498 -478 0 -7 7 -16 16 -19 11 -4
38 14 82 57 37 35 141 132 232 216 183 170 250 239 250 258 0 25 -30 13 -82
-34z"/>
<path d="M4154 6365 c-455 -67 -901 -289 -1243 -620 -299 -289 -425 -562 -425
-915 1 -238 53 -449 174 -695 143 -292 269 -450 749 -946 180 -185 301 -318
323 -355 79 -130 98 -248 96 -604 l-1 -235 -40 -34 c-47 -41 -67 -84 -67 -143
1 -82 56 -161 137 -195 l32 -13 -21 -37 c-40 -67 -20 -171 44 -229 30 -29 94
-62 141 -75 31 -8 37 -14 31 -27 -27 -62 -15 -137 29 -182 78 -80 184 -98 487
-82 301 16 363 32 428 106 50 57 57 168 13 227 -12 15 -21 31 -21 33 0 3 17
13 38 21 108 46 167 121 167 217 0 48 -5 64 -33 103 -17 25 -32 47 -32 49 0 2
10 6 23 10 36 9 108 76 128 120 41 90 5 190 -80 226 -24 9 -30 22 -49 99 -90
360 -63 670 82 958 55 111 130 224 286 433 346 465 503 774 570 1118 71 366 4
700 -194 962 -265 352 -776 635 -1275 704 -134 19 -369 19 -497 1z m511 -100
c517 -78 1037 -393 1247 -756 102 -177 143 -354 135 -579 -6 -161 -25 -263
-78 -427 -79 -242 -217 -480 -524 -903 -174 -239 -258 -373 -309 -496 -84
-199 -119 -429 -98 -651 11 -114 39 -270 57 -315 6 -15 -13 -17 -217 -20 -123
-2 -224 -3 -226 -2 -7 3 -33 231 -43 384 -23 348 2 756 82 1340 l31 225 62 66
c68 72 122 158 132 206 9 45 -25 77 -72 70 -80 -13 -124 -77 -153 -224 -17
-86 -17 -87 -56 -105 -50 -22 -127 -23 -171 -2 l-34 16 31 36 c63 71 74 148
27 192 -67 62 -171 -34 -154 -140 3 -21 8 -45 12 -53 3 -10 -5 -18 -27 -26
-18 -6 -33 -10 -34 -9 -1 2 -14 29 -29 61 -54 112 -136 164 -210 133 -95 -40
-82 -182 21 -232 22 -10 68 -20 110 -22 l72 -4 21 -88 c53 -228 83 -525 105
-1035 15 -349 30 -591 43 -705 6 -48 10 -55 31 -58 l24 -4 -7 89 c-19 250 -27
378 -41 698 -22 507 -41 704 -92 960 -14 72 -26 136 -27 144 0 7 16 19 37 27
35 12 40 11 73 -11 20 -14 52 -27 70 -31 36 -7 123 -1 160 11 21 7 21 6 8 -82
-106 -713 -130 -1269 -73 -1713 5 -41 11 -84 14 -96 4 -20 -1 -21 -198 -32
-202 -12 -386 -34 -434 -53 -14 -5 -29 -7 -32 -3 -3 3 -9 137 -12 297 -7 320
-15 370 -78 496 -45 88 -96 147 -350 406 -273 277 -377 391 -487 530 -374 473
-508 977 -370 1388 57 171 155 321 313 480 324 328 757 554 1189 621 123 19
404 20 529 1z m205 -1913 c0 -11 -65 -119 -98 -161 -32 -43 -38 -28 -17 46 11
36 29 69 50 90 31 31 65 44 65 25z m-409 -86 c13 -27 -8 -81 -41 -111 -19 -17
-20 -16 -30 9 -14 39 -13 57 10 94 23 38 46 41 61 8z m-312 -51 c32 -27 64
-75 76 -112 6 -22 3 -23 -40 -23 -58 0 -105 20 -133 55 -60 76 21 143 97 80z
m1054 -2219 c21 -14 27 -26 27 -55 0 -93 -92 -134 -320 -146 -142 -8 -294 -29
-550 -76 -330 -61 -469 -56 -534 22 -13 16 -27 42 -31 59 -6 27 -2 36 32 66
54 50 147 92 239 109 121 23 528 43 834 41 250 -1 277 -3 303 -20z m-180 -307
c21 -5 52 -23 70 -39 61 -54 33 -146 -59 -190 -95 -46 -565 -120 -765 -120
-203 0 -281 27 -326 114 -31 59 12 116 88 116 26 0 112 11 191 24 79 14 235
36 348 51 113 14 243 32 290 39 110 18 118 18 163 5z m-94 -404 c26 -13 51
-58 51 -91 0 -28 -53 -74 -101 -88 -70 -21 -416 -49 -530 -43 -133 7 -199 41
-199 103 0 43 24 67 59 59 34 -7 364 30 486 54 113 23 197 25 234 6z"/>
<path d="M1984 6268 c-9 -14 31 -48 161 -137 127 -87 249 -154 272 -149 40 7
12 35 -97 97 -64 37 -159 97 -213 134 -101 70 -111 74 -123 55z"/>
<path d="M6673 5243 c-191 -3 -203 -5 -203 -22 0 -10 7 -22 16 -25 25 -9 361
-6 442 4 84 11 93 15 85 35 -4 12 -21 14 -72 13 -36 -2 -157 -4 -268 -5z"/>
<path d="M1540 4788 c-59 -5 -100 -14 -110 -23 -29 -30 2 -34 164 -23 121 9
196 9 313 -1 85 -6 158 -9 163 -6 16 10 11 33 -7 39 -30 9 -272 26 -352 25
-42 -1 -119 -6 -171 -11z"/>
<path d="M6283 3845 c-8 -21 7 -31 183 -119 171 -85 320 -148 475 -199 127
-43 162 -48 167 -26 2 12 -23 25 -105 54 -208 73 -360 137 -526 220 -92 47
-172 85 -178 85 -5 0 -12 -7 -16 -15z"/>
<path d="M2315 3586 c-16 -19 -94 -103 -173 -187 -122 -129 -141 -154 -130
-167 11 -13 37 10 191 169 97 101 176 191 175 199 -5 27 -32 21 -63 -14z"/>
</g>
</svg>
